<svg width="500" height="500" xmlns="http://www.w3.org/2000/svg">

    <g>
        <title>Layer 1</title>
        <rect transform="rotate(-51.668 315.808 238.566)" stroke="#32320F" id="svg_29" height="11.58305"
              width="88.26134" y="232.77473" x="271.67733" stroke-width="2" fill="#CFCA6D"/>
        <rect transform="rotate(-51.668 171.949 296.461)" stroke="#32320F" id="svg_30" height="11.58305"
              width="88.26134" y="290.66908" x="127.81863" stroke-width="2" fill="#CFCA6D"/>
        <rect transform="rotate(-85.2752 218.117 397.596)" stroke="#32320F" id="svg_31" height="11.58305"
              width="88.26134" y="391.80427" x="173.98599" stroke-width="2" fill="#CFCA6D"/>
        <rect transform="rotate(-92.2766 265.046 397.919)" stroke="#32320F" id="svg_28" height="11.58305"
              width="88.26134" y="392.12783" x="220.9155" stroke-width="2" fill="#CFCA6D"/>
        <path stroke="#32320F" stroke-width="2" id="svg_18"
              d="m195.71201,178.31946c-6.60793,18.3036 -7.48899,10.12539 -10.57269,54.52135c-3.0837,44.39596 10.13216,57.24742 13.65639,102.42225c3.52423,45.17483 77.09251,57.63686 85.46256,-1.16831c8.37004,-58.80517 23.78855,-72.43551 20.26432,-104.36944c-3.52423,-31.93393 0,-22.97685 -11.89427,-50.62697c-11.89427,-27.65011 -90.30837,-19.08247 -96.9163,-0.77888z"
              opacity="NaN" fill="#CFCA6D"/>
        <ellipse stroke-width="2" ry="20.5" rx="13" id="svg_1" cy="218.14293" cx="216.2891" stroke="#000"
                 fill="#ffffff"/>
        <ellipse stroke-width="2" ry="20.5" rx="13" id="svg_2" cy="218.14293" cx="274.2891" stroke="#000"
                 fill="#ffffff"/>
        <ellipse ry="5.42168" rx="5.42168" id="svg_7" cy="224.22389" cx="216.28911" fill="#000000"/>
        <ellipse ry="5.42168" rx="5.42168" id="svg_4" cy="224.62549" cx="274.28912" fill="#000000"/>
        <path stroke-width="2" stroke="#153723" id="svg_13"
              d="m194.79742,176.07133c4.01606,-33.73491 24.49796,-45.38149 17.67066,-70.68267c-6.8273,-25.30118 5.62248,-44.17666 32.53009,-44.57827c26.9076,-0.40161 40.96382,24.09637 34.13652,44.57827c-7.42971,34.13652 9.83934,41.96783 14.85942,70.68267l-99.19668,0z"
              opacity="NaN" fill="#396849"/>
        <path stroke-width="2" stroke="#153723" id="svg_11"
              d="m244.39577,68.44091c-9.31903,0 -16.86745,-7.54842 -16.86745,-16.86745c0,-9.31903 7.54842,-16.86745 16.86745,-16.86745c9.31903,0 16.86745,7.54842 16.86745,16.86745c0,9.31903 -7.54842,16.86745 -16.86745,16.86745z"
              opacity="undefined" fill="#396849"/>
        <path id="svg_17"
              d="m1237.33921,908.22467c7.48899,26.87225 19.38326,44.05286 20.70485,79.29515c1.32159,35.24229 -28.19383,-106.1674 -20.70485,-79.29515z"
              opacity="NaN" stroke="#0C372C" fill="#396849"/>
        <path stroke="#000000" id="svg_33"
              d="m242.03046,281.45c50.85456,0 62.5261,-12.4395 39.73882,-9.01864c-22.78729,3.42086 -53.6335,4.04284 -78.08816,-0.62197c-24.45465,-4.66482 -12.50522,9.64061 38.34934,9.64061z"
              opacity="NaN" stroke-width="4" fill="#000000"/>
        <path stroke="#153723" id="svg_21"
              d="m244.1252,185.54835c63.56356,1.12778 66.45508,-17.47241 45.8264,-13.21259c-20.62868,4.25982 -61.51313,1.41178 -88.7308,-0.15936c-27.21767,-1.57114 -20.65916,12.24418 42.9044,13.37195z"
              opacity="NaN" stroke-width="2" fill="#396849"/>
        <ellipse ry="9.99996" rx="14.09085" id="svg_23" cy="202.48178" cx="340.59523" stroke-width="2" stroke="#000000"
                 fill="#894F3F"/>
        <ellipse ry="9.99996" rx="14.09085" id="svg_22" cy="330.11282" cx="144.10481" stroke-width="2" stroke="#000000"
                 fill="#894F3F"/>
        <path stroke="#000000" id="svg_26"
              d="m258.25555,450.54325c0,-25.2138 31.09491,-22.29938 31.81805,0.72192l-31.81805,-0.72192z" opacity="NaN"
              stroke-width="2" fill="#894F3F"/>
        <path stroke="#000000" id="svg_25"
              d="m190.64708,451.22653c0,-25.2138 31.09491,-24.57209 31.81805,-1.5508l-31.81805,1.5508z" opacity="NaN"
              stroke-width="2" fill="#894F3F"/>
        <path stroke="#C97A86" stroke-width="3" id="svg_34"
              d="m242.19061,280.56434c48.58281,0.21505 60.59088,-10.73309 37.96362,-7.15783c-22.62726,3.57525 -49.09282,4.49901 -74.59984,-0.49364c-25.50702,-4.99265 -11.94659,7.43642 36.63621,7.65147z"
              opacity="NaN" fill="#000000"/>
        <ellipse stroke-width="2" ry="19.47789" rx="24.09636" id="svg_14" cy="257.92588" cx="244.39578" stroke="#32320F"
                 fill="#FFFF91"/>
    </g>
</svg>