{
    "asset" : {
        "generator" : "Khronos glTF Blender I/O v1.7.33",
        "version" : "2.0"
    },
    "scene" : 0,
    "scenes" : [
        {
            "name" : "Scene",
            "nodes" : [
                0
            ]
        }
    ],
    "nodes" : [
        {
            "mesh" : 0,
            "name" : "Cube.001",
            "rotation" : [
                0,
                0,
                -0.7071067690849304,
                0.7071068286895752
            ],
            "scale" : [
                0.03604886680841446,
                0.09012216329574585,
                0.027036650106310844
            ]
        }
    ],
    "materials" : [
        {
            "doubleSided" : true,
            "name" : "Material.001",
            "pbrMetallicRoughness" : {
                "baseColorFactor" : [
                    1,
                    0.5260950326919556,
                    0.11321551352739334,
                    1
                ],
                "metallicFactor" : 0,
                "roughnessFactor" : 0.5
            }
        }
    ],
    "meshes" : [
        {
            "name" : "Cube.002",
            "primitives" : [
                {
                    "attributes" : {
                        "POSITION" : 0,
                        "NORMAL" : 1
                    },
                    "indices" : 2,
                    "material" : 0
                }
            ]
        }
    ],
    "accessors" : [
        {
            "bufferView" : 0,
            "componentType" : 5126,
            "count" : 712,
            "max" : [
                3.499999523162842,
                1.3999996185302734,
                1.3333336114883423
            ],
            "min" : [
                -6.499999523162842,
                -12.199999809265137,
                -1.3333336114883423
            ],
            "type" : "VEC3"
        },
        {
            "bufferView" : 1,
            "componentType" : 5126,
            "count" : 712,
            "type" : "VEC3"
        },
        {
            "bufferView" : 2,
            "componentType" : 5123,
            "count" : 3936,
            "type" : "SCALAR"
        }
    ],
    "bufferViews" : [
        {
            "buffer" : 0,
            "byteLength" : 8544,
            "byteOffset" : 0
        },
        {
            "buffer" : 0,
            "byteLength" : 8544,
            "byteOffset" : 8544
        },
        {
            "buffer" : 0,
            "byteLength" : 7872,
            "byteOffset" : 17088
        }
    ],
    "buffers" : [
        {
            "byteLength" : 24960,
            "uri" : "data:application/octet-stream;base64,"
        }
    ]
}
