{
    "asset" : {
        "generator" : "Khronos glTF Blender I/O v1.6.16",
        "version" : "2.0"
    },
    "scene" : 0,
    "scenes" : [
        {
            "name" : "Scene",
            "nodes" : [
                0,
                1,
                2,
                3,
                4,
                5,
                6,
                7,
                8
            ]
        }
    ],
    "nodes" : [
        {
            "mesh" : 0,
            "name" : "Hall",
            "scale" : [
                3.997972249984741,
                1,
                4.084033489227295
            ]
        },
        {
            "name" : "Light.001",
            "rotation" : [
                0.16907575726509094,
                0.7558803558349609,
                -0.27217137813568115,
                0.570947527885437
            ],
            "translation" : [
                4.076245307922363,
                5.903861999511719,
                -1.0054539442062378
            ]
        },
        {
            "name" : "Camera.001",
            "rotation" : [
                0.483536034822464,
                0.33687159419059753,
                -0.20870360732078552,
                0.7804827094078064
            ],
            "translation" : [
                7.358891487121582,
                4.958309173583984,
                6.925790786743164
            ]
        },
        {
            "mesh" : 1,
            "name" : "Wall",
            "scale" : [
                1,
                1,
                3.941166400909424
            ],
            "translation" : [
                0.39896154403686523,
                1.170400857925415,
                -0.08775925636291504
            ]
        },
        {
            "mesh" : 2,
            "name" : "Wall.001",
            "rotation" : [
                0,
                0.7171948552131653,
                0,
                0.6968727111816406
            ],
            "scale" : [
                1.0000712871551514,
                1,
                2.246845245361328
            ],
            "translation" : [
                0.34403419494628906,
                1.1352308988571167,
                0.6300640106201172
            ]
        },
        {
            "mesh" : 3,
            "name" : "Wall.002",
            "rotation" : [
                0,
                0.7171948552131653,
                0,
                0.6968727111816406
            ],
            "scale" : [
                1.0000712871551514,
                1,
                2.246845245361328
            ],
            "translation" : [
                0.34403419494628906,
                1.1352308988571167,
                0.6300640106201172
            ]
        },
        {
            "mesh" : 4,
            "name" : "Wall.003",
            "rotation" : [
                0,
                0.7171948552131653,
                0,
                0.6968727111816406
            ],
            "scale" : [
                0.9997346997261047,
                1,
                1.3311806917190552
            ],
            "translation" : [
                -11.114527702331543,
                1.1352308988571167,
                0.9070438146591187
            ]
        },
        {
            "name" : "Light",
            "rotation" : [
                0.16907575726509094,
                0.7558803558349609,
                -0.27217137813568115,
                0.570947527885437
            ],
            "translation" : [
                4.076245307922363,
                5.903861999511719,
                -1.0054539442062378
            ]
        },
        {
            "name" : "Camera",
            "rotation" : [
                0.483536034822464,
                0.33687159419059753,
                -0.20870360732078552,
                0.7804827094078064
            ],
            "translation" : [
                7.358891487121582,
                4.958309173583984,
                6.925790786743164
            ]
        }
    ],
    "materials" : [
        {
            "doubleSided" : true,
            "name" : "Material.001",
            "pbrMetallicRoughness" : {
                "baseColorTexture" : {
                    "index" : 0
                },
                "metallicFactor" : 0,
                "roughnessFactor" : 0.4000000059604645
            }
        },
        {
            "doubleSided" : true,
            "name" : "Material.002",
            "pbrMetallicRoughness" : {
                "baseColorTexture" : {
                    "index" : 1
                },
                "metallicFactor" : 0,
                "roughnessFactor" : 0.5
            }
        }
    ],
    "meshes" : [
        {
            "name" : "Hall",
            "primitives" : [
                {
                    "attributes" : {
                        "POSITION" : 0,
                        "NORMAL" : 1,
                        "TEXCOORD_0" : 2
                    },
                    "indices" : 3,
                    "material" : 0
                }
            ]
        },
        {
            "name" : "Wall",
            "primitives" : [
                {
                    "attributes" : {
                        "POSITION" : 4,
                        "NORMAL" : 5,
                        "TEXCOORD_0" : 6
                    },
                    "indices" : 7,
                    "material" : 1
                }
            ]
        },
        {
            "name" : "Wall.001",
            "primitives" : [
                {
                    "attributes" : {
                        "POSITION" : 8,
                        "NORMAL" : 9,
                        "TEXCOORD_0" : 10
                    },
                    "indices" : 7,
                    "material" : 1
                }
            ]
        },
        {
            "name" : "Wall.002",
            "primitives" : [
                {
                    "attributes" : {
                        "POSITION" : 11,
                        "NORMAL" : 12,
                        "TEXCOORD_0" : 13
                    },
                    "indices" : 7,
                    "material" : 1
                }
            ]
        },
        {
            "name" : "Wall.003",
            "primitives" : [
                {
                    "attributes" : {
                        "POSITION" : 14,
                        "NORMAL" : 15,
                        "TEXCOORD_0" : 16
                    },
                    "indices" : 7,
                    "material" : 1
                }
            ]
        }
    ],
    "textures" : [
        {
            "sampler" : 0,
            "source" : 0
        },
        {
            "sampler" : 0,
            "source" : 1
        }
    ],
    "images" : [
        {
            "bufferView" : 4,
            "mimeType" : "image/png",
            "name" : "Material_Base_Color"
        },
        {
            "bufferView" : 9,
            "mimeType" : "image/png",
            "name" : "Material"
        }
    ],
    "accessors" : [
        {
            "bufferView" : 0,
            "componentType" : 5126,
            "count" : 62,
            "max" : [
                3.9304425716400146,
                2.4294791221618652,
                3.928205966949463
            ],
            "min" : [
                -3.8650238513946533,
                -0.27759408950805664,
                -3.867260456085205
            ],
            "type" : "VEC3"
        },
        {
            "bufferView" : 1,
            "componentType" : 5126,
            "count" : 62,
            "type" : "VEC3"
        },
        {
            "bufferView" : 2,
            "componentType" : 5126,
            "count" : 62,
            "type" : "VEC2"
        },
        {
            "bufferView" : 3,
            "componentType" : 5123,
            "count" : 84,
            "type" : "SCALAR"
        },
        {
            "bufferView" : 5,
            "componentType" : 5126,
            "count" : 24,
            "max" : [
                0.2851595878601074,
                0.8603389263153076,
                2.5805270671844482
            ],
            "min" : [
                -0.2851595878601074,
                -0.8603389263153076,
                -2.5805270671844482
            ],
            "type" : "VEC3"
        },
        {
            "bufferView" : 6,
            "componentType" : 5126,
            "count" : 24,
            "type" : "VEC3"
        },
        {
            "bufferView" : 7,
            "componentType" : 5126,
            "count" : 24,
            "type" : "VEC2"
        },
        {
            "bufferView" : 8,
            "componentType" : 5123,
            "count" : 36,
            "type" : "SCALAR"
        },
        {
            "bufferView" : 10,
            "componentType" : 5126,
            "count" : 24,
            "max" : [
                0.2851595878601074,
                0.8603389263153076,
                2.5805270671844482
            ],
            "min" : [
                -0.2851595878601074,
                -0.8603389263153076,
                -2.5805270671844482
            ],
            "type" : "VEC3"
        },
        {
            "bufferView" : 11,
            "componentType" : 5126,
            "count" : 24,
            "type" : "VEC3"
        },
        {
            "bufferView" : 12,
            "componentType" : 5126,
            "count" : 24,
            "type" : "VEC2"
        },
        {
            "bufferView" : 13,
            "componentType" : 5126,
            "count" : 24,
            "max" : [
                0.2851595878601074,
                0.8603389263153076,
                2.5805270671844482
            ],
            "min" : [
                -0.2851595878601074,
                -0.8603389263153076,
                -2.5805270671844482
            ],
            "type" : "VEC3"
        },
        {
            "bufferView" : 14,
            "componentType" : 5126,
            "count" : 24,
            "type" : "VEC3"
        },
        {
            "bufferView" : 15,
            "componentType" : 5126,
            "count" : 24,
            "type" : "VEC2"
        },
        {
            "bufferView" : 16,
            "componentType" : 5126,
            "count" : 24,
            "max" : [
                0.2851595878601074,
                0.8603389263153076,
                2.5805270671844482
            ],
            "min" : [
                -0.2851595878601074,
                -0.8603389263153076,
                -2.5805270671844482
            ],
            "type" : "VEC3"
        },
        {
            "bufferView" : 17,
            "componentType" : 5126,
            "count" : 24,
            "type" : "VEC3"
        },
        {
            "bufferView" : 18,
            "componentType" : 5126,
            "count" : 24,
            "type" : "VEC2"
        }
    ],
    "bufferViews" : [
        {
            "buffer" : 0,
            "byteLength" : 744,
            "byteOffset" : 0
        },
        {
            "buffer" : 0,
            "byteLength" : 744,
            "byteOffset" : 744
        },
        {
            "buffer" : 0,
            "byteLength" : 496,
            "byteOffset" : 1488
        },
        {
            "buffer" : 0,
            "byteLength" : 168,
            "byteOffset" : 1984
        },
        {
            "buffer" : 0,
            "byteLength" : 22794,
            "byteOffset" : 2152
        },
        {
            "buffer" : 0,
            "byteLength" : 288,
            "byteOffset" : 24948
        },
        {
            "buffer" : 0,
            "byteLength" : 288,
            "byteOffset" : 25236
        },
        {
            "buffer" : 0,
            "byteLength" : 192,
            "byteOffset" : 25524
        },
        {
            "buffer" : 0,
            "byteLength" : 72,
            "byteOffset" : 25716
        },
        {
            "buffer" : 0,
            "byteLength" : 21575,
            "byteOffset" : 25788
        },
        {
            "buffer" : 0,
            "byteLength" : 288,
            "byteOffset" : 47364
        },
        {
            "buffer" : 0,
            "byteLength" : 288,
            "byteOffset" : 47652
        },
        {
            "buffer" : 0,
            "byteLength" : 192,
            "byteOffset" : 47940
        },
        {
            "buffer" : 0,
            "byteLength" : 288,
            "byteOffset" : 48132
        },
        {
            "buffer" : 0,
            "byteLength" : 288,
            "byteOffset" : 48420
        },
        {
            "buffer" : 0,
            "byteLength" : 192,
            "byteOffset" : 48708
        },
        {
            "buffer" : 0,
            "byteLength" : 288,
            "byteOffset" : 48900
        },
        {
            "buffer" : 0,
            "byteLength" : 288,
            "byteOffset" : 49188
        },
        {
            "buffer" : 0,
            "byteLength" : 192,
            "byteOffset" : 49476
        }
    ],
    "samplers" : [
        {
            "magFilter" : 9729,
            "minFilter" : 9987
        }
    ],
    "buffers" : [
        {
            "byteLength" : 49668,
            "uri" : "data:application/octet-stream;base64,"
        }
    ]
}
