{
    "asset" : {
        "generator" : "Khronos glTF Blender I/O v1.6.16",
        "version" : "2.0"
    },
    "scene" : 0,
    "scenes" : [
        {
            "name" : "Scene",
            "nodes" : [
                0,
                1,
                2
            ]
        }
    ],
    "nodes" : [
        {
            "mesh" : 0,
            "name" : "crate"
        },
        {
            "name" : "Camera",
            "rotation" : [
                0.19686579704284668,
                0.7987081408500671,
                -0.4464285969734192,
                0.352151483297348
            ],
            "translation" : [
                4.758890151977539,
                3.8892953395843506,
                -4.361671447753906
            ]
        },
        {
            "name" : "Point",
            "rotation" : [
                0.3544527292251587,
                0.6133087277412415,
                -0.35696837306022644,
                0.6089246869087219
            ],
            "translation" : [
                2.343128204345703,
                2.1114249229431152,
                2.3883285522460938
            ]
        }
    ],
    "materials" : [
        {
            "doubleSided" : true,
            "name" : "crate",
            "pbrMetallicRoughness" : {}
        }
    ],
    "meshes" : [
        {
            "name" : "Cube.004",
            "primitives" : [
                {
                    "attributes" : {
                        "POSITION" : 0,
                        "NORMAL" : 1,
                        "TEXCOORD_0" : 2
                    },
                    "indices" : 3,
                    "material" : 0
                }
            ]
        }
    ],
    "accessors" : [
        {
            "bufferView" : 0,
            "componentType" : 5126,
            "count" : 734,
            "max" : [
                1,
                1,
                1
            ],
            "min" : [
                -1,
                -1,
                -1
            ],
            "type" : "VEC3"
        },
        {
            "bufferView" : 1,
            "componentType" : 5126,
            "count" : 734,
            "type" : "VEC3"
        },
        {
            "bufferView" : 2,
            "componentType" : 5126,
            "count" : 734,
            "type" : "VEC2"
        },
        {
            "bufferView" : 3,
            "componentType" : 5123,
            "count" : 1764,
            "type" : "SCALAR"
        }
    ],
    "bufferViews" : [
        {
            "buffer" : 0,
            "byteLength" : 8808,
            "byteOffset" : 0
        },
        {
            "buffer" : 0,
            "byteLength" : 8808,
            "byteOffset" : 8808
        },
        {
            "buffer" : 0,
            "byteLength" : 5872,
            "byteOffset" : 17616
        },
        {
            "buffer" : 0,
            "byteLength" : 3528,
            "byteOffset" : 23488
        }
    ],
    "buffers" : [
        {
            "byteLength" : 27016,
            "uri" : "data:application/octet-stream;base64,"
        }
    ]
}
